<?xml version="1.0" standalone="no"?>
<!DOCTYPE svg PUBLIC "-//W3C//DTD SVG 20010904//EN"
 "http://www.w3.org/TR/2001/REC-SVG-20010904/DTD/svg10.dtd">
<svg version="1.0" xmlns="http://www.w3.org/2000/svg"
 width="242.000000pt" height="63.000000pt" viewBox="0 0 242.000000 63.000000"
 preserveAspectRatio="xMidYMid meet">

<g transform="translate(0.000000,63.000000) scale(0.100000,-0.100000)"
fill="#000000" stroke="none">
<path d="M315 541 c-11 -5 -29 -19 -40 -31 -18 -20 -20 -36 -20 -161 0 -138 0
-139 28 -166 27 -28 28 -28 167 -28 139 0 140 0 167 28 28 27 28 28 28 167 0
139 0 140 -28 167 -27 27 -30 28 -155 30 -70 2 -136 -1 -147 -6z m230 -191 l0
-95 -95 0 -95 0 -3 84 c-2 46 0 90 2 98 4 11 27 13 98 11 l93 -3 0 -95z"/>
<path d="M770 355 l0 -85 60 0 c47 0 60 3 60 15 0 11 -12 15 -45 15 -38 0 -45
3 -45 20 0 17 7 20 40 20 29 0 40 4 40 15 0 11 -11 15 -40 15 -33 0 -40 3 -40
20 0 17 7 20 45 20 33 0 45 4 45 15 0 12 -13 15 -60 15 l-60 0 0 -85z"/>
<path d="M920 355 c0 -69 3 -85 15 -85 12 0 15 16 15 85 0 69 -3 85 -15 85
-12 0 -15 -16 -15 -85z"/>
<path d="M1640 355 c0 -69 3 -85 15 -85 10 0 15 10 15 30 0 27 3 30 33 30 58
0 88 58 49 93 -12 11 -36 17 -65 17 l-47 0 0 -85z m95 30 c0 -15 -8 -21 -32
-23 -30 -3 -33 -1 -33 23 0 24 3 26 33 23 24 -2 32 -8 32 -23z"/>
<path d="M1566 399 c-11 -14 -14 -24 -8 -28 6 -3 12 -27 14 -51 2 -38 7 -46
26 -48 12 -2 22 1 22 7 0 6 -4 11 -10 11 -15 0 -12 77 3 84 10 5 10 7 0 12 -7
3 -13 12 -13 20 0 20 -13 17 -34 -7z"/>
<path d="M986 368 c-9 -12 -16 -29 -16 -38 0 -27 30 -60 54 -60 13 0 31 9 41
20 14 16 15 20 4 20 -8 0 -20 -5 -26 -11 -13 -13 -43 -5 -43 11 0 5 18 10 40
10 32 0 40 4 40 18 0 24 -31 52 -58 52 -11 0 -28 -10 -36 -22z m62 -15 c2 -8
-6 -13 -22 -13 -25 0 -33 10 -19 24 10 10 36 3 41 -11z"/>
<path d="M1100 329 c0 -46 3 -59 15 -59 10 0 15 10 15 34 0 44 9 66 26 66 10
0 14 -14 14 -50 0 -38 4 -50 15 -50 10 0 15 10 15 34 0 44 9 66 26 66 10 0 14
-14 14 -50 0 -43 3 -50 20 -50 17 0 20 6 19 38 -1 73 -6 77 -98 78 l-81 1 0
-58z"/>
<path d="M1316 374 c-9 -8 -16 -31 -16 -50 0 -27 5 -37 25 -46 27 -12 75 2 75
22 0 14 -27 13 -32 -2 -5 -14 -38 -4 -38 12 0 5 18 10 41 10 37 0 40 2 34 23
-14 44 -60 61 -89 31z m58 -19 c4 -11 -1 -15 -19 -15 -24 0 -32 10 -18 23 11
12 31 8 37 -8z"/>
<path d="M1430 329 c0 -45 3 -59 14 -59 11 0 16 14 18 48 3 39 6 47 23 47 17
0 20 -8 23 -47 2 -34 7 -48 18 -48 18 0 20 93 2 108 -7 5 -32 10 -55 9 l-43 0
0 -58z"/>
<path d="M1802 378 c-16 -16 -15 -28 3 -28 8 0 15 5 15 10 0 6 7 10 16 10 23
0 11 -24 -16 -30 -13 -3 -28 -13 -33 -22 -17 -27 7 -46 57 -46 l43 1 -4 46
c-3 25 -6 52 -8 59 -5 15 -57 16 -73 0z m48 -62 c0 -18 -17 -29 -30 -21 -8 5
-7 11 1 21 15 18 29 18 29 0z"/>
<path d="M1920 338 c24 -63 26 -98 5 -98 -8 0 -15 -4 -15 -10 0 -15 36 -12 49
4 6 7 20 37 30 67 10 30 22 62 26 72 5 12 2 17 -8 17 -9 0 -20 -15 -27 -35
-14 -44 -24 -44 -36 -3 -6 18 -18 34 -27 36 -16 3 -16 0 3 -50z"/>
</g>
</svg>
